#Comment line ignore any data following # character 
#Hierarchical Translation and Rotation (.htr) file 
[Header]	
#Header keywords are followed by a single value 
FileType HTR		#Single word string
DataType HTRS		#Translation followed by rotation and scale data
FileVersion 1		#integer
NumSegments 84		#integer
NumFrames 2		#integer
DataFrameRate 30		#integer, data frame rate in this file
EulerRotationOrder ZYX
CalibrationUnits mm
RotationUnits Degrees
GlobalAxisofGravity Y
BoneLengthAxis Y
ScaleFactor 1.00
[SegmentNames&Hierarchy]
#CHILD	PARENT
MASTER GLOBAL
root MASTER
chest root
L_mid_tent01 root
R_mid_tent01 root
spine01 root
Bip01_Neck chest
L_humerus chest
R_humerus chest
weapon_bone chest
Bip01_Head Bip01_Neck
eye_left_bone Bip01_Head
eye_right_bone Bip01_Head
L_forearm L_humerus
L_front_hand L_forearm
L_weapon_bone L_forearm
L_front_hand01_01 L_front_hand
L_front_hand02_01 L_front_hand
L_front_hand03_01 L_front_hand
L_front_hand01_02 L_front_hand01_01
L_front_hand02_02 L_front_hand02_01
L_front_hand03_02 L_front_hand03_01
R_forearm R_humerus
R_front_hand R_forearm
R_weapon_bone R_forearm
R_front_hand01_01 R_front_hand
R_front_hand02_01 R_front_hand
R_front_hand03_01 R_front_hand
R_front_hand01_02 R_front_hand01_01
R_front_hand02_02 R_front_hand02_01
R_front_hand03_02 R_front_hand03_01
null_rope01_connect L_mid_tent01
Rope1_Seg01 null_rope01_connect
Rope1_Seg02 Rope1_Seg01
Rope1_Seg03 Rope1_Seg02
Rope1_Seg04 Rope1_Seg03
Rope1_Seg05 Rope1_Seg04
Rope1_Seg06 Rope1_Seg05
Rope1_Seg07 Rope1_Seg06
Rope1_Seg09 Rope1_Seg07
L_mid_hand01 Rope1_Seg09
L_mid_hand02 Rope1_Seg09
L_mid_hand03 Rope1_Seg09
null_rope02_connect R_mid_tent01
Rope2_Seg01 null_rope02_connect
Rope2_Seg02 Rope2_Seg01
Rope2_Seg03 Rope2_Seg02
Rope2_Seg04 Rope2_Seg03
Rope2_Seg05 Rope2_Seg04
Rope2_Seg06 Rope2_Seg05
Rope2_Seg07 Rope2_Seg06
Rope2_Seg09 Rope2_Seg07
R_mid_hand01 Rope2_Seg09
R_mid_hand02 Rope2_Seg09
R_mid_hand03 Rope2_Seg09
spine02 spine01
spine03 spine02
pelvis spine03
null_rope03_connect pelvis
null_rope04_connect pelvis
Rope3_Seg01 null_rope03_connect
Rope3_Seg02 Rope3_Seg01
Rope3_Seg03 Rope3_Seg02
Rope3_Seg04 Rope3_Seg03
Rope3_Seg05 Rope3_Seg04
Rope3_Seg06 Rope3_Seg05
Rope3_Seg07 Rope3_Seg06
Rope3_Seg08 Rope3_Seg07
Rope3_Seg09 Rope3_Seg08
R_rear_hand01 Rope3_Seg09
R_rear_hand02 Rope3_Seg09
R_rear_hand03 Rope3_Seg09
Rope4_Seg01 null_rope04_connect
Rope4_Seg02 Rope4_Seg01
Rope4_Seg03 Rope4_Seg02
Rope4_Seg04 Rope4_Seg03
Rope4_Seg05 Rope4_Seg04
Rope4_Seg06 Rope4_Seg05
Rope4_Seg07 Rope4_Seg06
Rope4_Seg08 Rope4_Seg07
Rope4_Seg09 Rope4_Seg08
L_rear_hand01 Rope4_Seg09
L_rear_hand02 Rope4_Seg09
L_rear_hand03 Rope4_Seg09
[BasePosition]
#SegmentName Tx, Ty, Tz, Rx, Ry, Rz, BoneLength
MASTER 0.000000 0.000000 0.000000 -90.000000 0.000000 0.000000 10.000000 
root 0.000000 0.000000 0.000000 0.000000 0.000000 0.000000 10.000000 
chest 0.000000 0.000000 0.000000 0.000000 0.000000 0.000000 10.000000 
L_mid_tent01 0.000000 0.000000 0.000000 0.000000 0.000000 0.000000 10.000000 
R_mid_tent01 0.000000 0.000000 0.000000 0.000000 0.000000 0.000000 10.000000 
spine01 0.000000 0.000000 0.000000 0.000000 0.000000 0.000000 10.000000 
Bip01_Neck 0.000000 0.000000 0.000000 0.000000 0.000000 0.000000 10.000000 
L_humerus 0.000000 0.000000 0.000000 0.000000 0.000000 0.000000 10.000000 
R_humerus 0.000000 0.000000 0.000000 0.000000 0.000000 0.000000 10.000000 
weapon_bone 0.000000 0.000000 0.000000 0.000000 0.000000 0.000000 10.000000 
Bip01_Head 0.000000 0.000000 0.000000 0.000000 0.000000 0.000000 10.000000 
eye_left_bone 0.000000 0.000000 0.000000 0.000000 0.000000 0.000000 10.000000 
eye_right_bone 0.000000 0.000000 0.000000 0.000000 0.000000 0.000000 10.000000 
L_forearm 0.000000 0.000000 0.000000 0.000000 0.000000 0.000000 10.000000 
L_front_hand 0.000000 0.000000 0.000000 0.000000 0.000000 0.000000 10.000000 
L_weapon_bone 0.000000 0.000000 0.000000 0.000000 0.000000 0.000000 10.000000 
L_front_hand01_01 0.000000 0.000000 0.000000 0.000000 0.000000 0.000000 10.000000 
L_front_hand02_01 0.000000 0.000000 0.000000 0.000000 0.000000 0.000000 10.000000 
L_front_hand03_01 0.000000 0.000000 0.000000 0.000000 0.000000 0.000000 10.000000 
L_front_hand01_02 0.000000 0.000000 0.000000 0.000000 0.000000 0.000000 10.000000 
L_front_hand02_02 0.000000 0.000000 0.000000 0.000000 0.000000 0.000000 10.000000 
L_front_hand03_02 0.000000 0.000000 0.000000 0.000000 0.000000 0.000000 10.000000 
R_forearm 0.000000 0.000000 0.000000 0.000000 0.000000 0.000000 10.000000 
R_front_hand 0.000000 0.000000 0.000000 0.000000 0.000000 0.000000 10.000000 
R_weapon_bone 0.000000 0.000000 0.000000 0.000000 0.000000 0.000000 10.000000 
R_front_hand01_01 0.000000 0.000000 0.000000 0.000000 0.000000 0.000000 10.000000 
R_front_hand02_01 0.000000 0.000000 0.000000 0.000000 0.000000 0.000000 10.000000 
R_front_hand03_01 0.000000 0.000000 0.000000 0.000000 0.000000 0.000000 10.000000 
R_front_hand01_02 0.000000 0.000000 0.000000 0.000000 0.000000 0.000000 10.000000 
R_front_hand02_02 0.000000 0.000000 0.000000 0.000000 0.000000 0.000000 10.000000 
R_front_hand03_02 0.000000 0.000000 0.000000 0.000000 0.000000 0.000000 10.000000 
null_rope01_connect 0.000000 0.000000 0.000000 0.000000 0.000000 0.000000 10.000000 
Rope1_Seg01 0.000000 0.000000 0.000000 0.000000 0.000000 0.000000 10.000000 
Rope1_Seg02 0.000000 0.000000 0.000000 0.000000 0.000000 0.000000 10.000000 
Rope1_Seg03 0.000000 0.000000 0.000000 0.000000 0.000000 0.000000 10.000000 
Rope1_Seg04 0.000000 0.000000 0.000000 0.000000 0.000000 0.000000 10.000000 
Rope1_Seg05 0.000000 0.000000 0.000000 0.000000 0.000000 0.000000 10.000000 
Rope1_Seg06 0.000000 0.000000 0.000000 0.000000 0.000000 0.000000 10.000000 
Rope1_Seg07 0.000000 0.000000 0.000000 0.000000 0.000000 0.000000 10.000000 
Rope1_Seg09 0.000000 0.000000 0.000000 0.000000 0.000000 0.000000 10.000000 
L_mid_hand01 0.000000 0.000000 0.000000 0.000000 0.000000 0.000000 10.000000 
L_mid_hand02 0.000000 0.000000 0.000000 0.000000 0.000000 0.000000 10.000000 
L_mid_hand03 0.000000 0.000000 0.000000 0.000000 0.000000 0.000000 10.000000 
null_rope02_connect 0.000000 0.000000 0.000000 0.000000 0.000000 0.000000 10.000000 
Rope2_Seg01 0.000000 0.000000 0.000000 0.000000 0.000000 0.000000 10.000000 
Rope2_Seg02 0.000000 0.000000 0.000000 0.000000 0.000000 0.000000 10.000000 
Rope2_Seg03 0.000000 0.000000 0.000000 0.000000 0.000000 0.000000 10.000000 
Rope2_Seg04 0.000000 0.000000 0.000000 0.000000 0.000000 0.000000 10.000000 
Rope2_Seg05 0.000000 0.000000 0.000000 0.000000 0.000000 0.000000 10.000000 
Rope2_Seg06 0.000000 0.000000 0.000000 0.000000 0.000000 0.000000 10.000000 
Rope2_Seg07 0.000000 0.000000 0.000000 0.000000 0.000000 0.000000 10.000000 
Rope2_Seg09 0.000000 0.000000 0.000000 0.000000 0.000000 0.000000 10.000000 
R_mid_hand01 0.000000 0.000000 0.000000 0.000000 0.000000 0.000000 10.000000 
R_mid_hand02 0.000000 0.000000 0.000000 0.000000 0.000000 0.000000 10.000000 
R_mid_hand03 0.000000 0.000000 0.000000 0.000000 0.000000 0.000000 10.000000 
spine02 0.000000 0.000000 0.000000 0.000000 0.000000 0.000000 10.000000 
spine03 0.000000 0.000000 0.000000 0.000000 0.000000 0.000000 10.000000 
pelvis 0.000000 0.000000 0.000000 0.000000 0.000000 0.000000 10.000000 
null_rope03_connect 0.000000 0.000000 0.000000 0.000000 0.000000 0.000000 10.000000 
null_rope04_connect 0.000000 0.000000 0.000000 0.000000 0.000000 0.000000 10.000000 
Rope3_Seg01 0.000000 0.000000 0.000000 0.000000 0.000000 0.000000 10.000000 
Rope3_Seg02 0.000000 0.000000 0.000000 0.000000 0.000000 0.000000 10.000000 
Rope3_Seg03 0.000000 0.000000 0.000000 0.000000 0.000000 0.000000 10.000000 
Rope3_Seg04 0.000000 0.000000 0.000000 0.000000 0.000000 0.000000 10.000000 
Rope3_Seg05 0.000000 0.000000 0.000000 0.000000 0.000000 0.000000 10.000000 
Rope3_Seg06 0.000000 0.000000 0.000000 0.000000 0.000000 0.000000 10.000000 
Rope3_Seg07 0.000000 0.000000 0.000000 0.000000 0.000000 0.000000 10.000000 
Rope3_Seg08 0.000000 0.000000 0.000000 0.000000 0.000000 0.000000 10.000000 
Rope3_Seg09 0.000000 0.000000 0.000000 0.000000 0.000000 0.000000 10.000000 
R_rear_hand01 0.000000 0.000000 0.000000 0.000000 0.000000 0.000000 10.000000 
R_rear_hand02 0.000000 0.000000 0.000000 0.000000 0.000000 0.000000 10.000000 
R_rear_hand03 0.000000 0.000000 0.000000 0.000000 0.000000 0.000000 10.000000 
Rope4_Seg01 0.000000 0.000000 0.000000 0.000000 0.000000 0.000000 10.000000 
Rope4_Seg02 0.000000 0.000000 0.000000 0.000000 0.000000 0.000000 10.000000 
Rope4_Seg03 0.000000 0.000000 0.000000 0.000000 0.000000 0.000000 10.000000 
Rope4_Seg04 0.000000 0.000000 0.000000 0.000000 0.000000 0.000000 10.000000 
Rope4_Seg05 0.000000 0.000000 0.000000 0.000000 0.000000 0.000000 10.000000 
Rope4_Seg06 0.000000 0.000000 0.000000 0.000000 0.000000 0.000000 10.000000 
Rope4_Seg07 0.000000 0.000000 0.000000 0.000000 0.000000 0.000000 10.000000 
Rope4_Seg08 0.000000 0.000000 0.000000 0.000000 0.000000 0.000000 10.000000 
Rope4_Seg09 0.000000 0.000000 0.000000 0.000000 0.000000 0.000000 10.000000 
L_rear_hand01 0.000000 0.000000 0.000000 0.000000 0.000000 0.000000 10.000000 
L_rear_hand02 0.000000 0.000000 0.000000 0.000000 0.000000 0.000000 10.000000 
L_rear_hand03 0.000000 0.000000 0.000000 0.000000 0.000000 0.000000 10.000000 
#Beginning of Data. Separated by tabs
#Fr	Tx	Ty	Tz	Rx	Ry	Rz	SF
[MASTER]
7 838.023865 -0.000127 0.000000 0.002347 0.000000 89.997704 838.023865
8 1049.268311 -0.000158 0.000000 0.002347 0.000000 89.997704 1049.268433
[root]
7 -62.822109 16.502304 978.090149 153.452713 -27.524807 -177.739807 980.244507
8 -62.822105 16.502304 934.703003 121.640167 -27.412256 -177.308533 936.957092
[chest]
7 -84.512650 -34.090519 0.000000 -122.466751 0.979563 165.678070 91.129311
8 -84.512650 -34.090519 0.000000 -154.359390 -3.608362 168.224640 91.129311
[L_mid_tent01]
7 27.485991 22.070679 -251.116150 -30.093735 2.785302 17.925568 253.578217
8 27.500504 22.062393 -251.209351 -30.354939 1.642238 16.717007 253.671356
[R_mid_tent01]
7 23.228794 24.509907 226.238495 -153.665451 -45.375603 26.036753 228.744751
8 23.228794 24.509907 226.238495 -154.947052 -46.456409 27.586313 228.744751
[spine01]
7 -0.361383 -0.195265 0.000000 8.613603 1.009557 -3.498956 0.410763
8 -0.361383 -0.195265 0.000000 11.790051 1.180231 -3.944608 0.410763
[Bip01_Neck]
7 165.484543 71.581718 0.000119 175.896118 1.177290 24.871183 180.302734
8 165.484543 71.581718 0.000119 175.896118 1.177290 24.871183 180.302734
[L_humerus]
7 -13.983130 -135.272980 -120.471481 170.940826 81.564224 -99.189163 181.680161
8 -13.983130 -135.272980 -120.471481 170.940796 81.564270 -99.189209 181.680161
[R_humerus]
7 -13.983309 -135.273102 125.287651 -159.666046 -68.957870 -101.166077 184.909012
8 -13.983309 -135.273102 125.287651 -159.666046 -68.957870 -101.166077 184.909012
[weapon_bone]
7 235.964890 -300.705902 0.000000 0.000000 -89.951546 -128.212341 382.234833
8 235.964890 -300.705902 0.000000 0.000000 -89.951546 -128.212341 382.234833
[Bip01_Head]
7 261.355804 108.959396 -2.864161 2.248028 5.843376 -62.458344 283.173492
8 261.355804 108.959412 -2.864157 2.248029 5.843377 -62.458344 283.173492
[eye_left_bone]
7 -24.626970 125.451866 -64.772606 0.000000 -90.000000 -99.840431 143.318359
8 -24.626970 125.451866 -64.772606 0.000000 -90.000000 -99.840431 143.318359
[eye_right_bone]
7 -24.626970 125.451866 64.327362 0.000000 -89.972023 80.159386 143.117676
8 -24.626970 125.451866 64.327362 0.000000 -89.972023 80.159393 143.117676
[L_forearm]
7 322.776093 0.000000 -0.000119 0.000471 0.002300 -66.859398 322.776093
8 322.776093 0.000000 -0.000119 0.000471 0.002300 -66.859398 322.776093
[L_front_hand]
7 241.149185 -0.042021 -3.300071 -178.667953 -1.835447 -27.422350 241.171753
8 241.149185 -0.042021 -3.300071 -178.667953 -1.835447 -27.422342 241.171753
[L_weapon_bone]
7 156.183838 0.000000 0.000000 0.002004 0.001222 27.225914 156.183838
8 156.183838 0.000000 0.000000 0.001926 0.001350 19.914928 156.183838
[L_front_hand01_01]
7 86.095154 20.947098 -0.655860 0.405585 -0.442306 -4.620490 88.609184
8 86.095154 20.947098 -0.655860 0.404495 -0.443303 -4.338367 88.609184
[L_front_hand02_01]
7 86.935165 -11.437475 24.513514 116.959450 3.630817 1.495453 91.046425
8 86.935165 -11.437475 24.513514 116.952362 3.380130 1.370284 91.046425
[L_front_hand03_01]
7 86.637497 -14.123976 -20.424902 -118.420097 -4.656303 -0.152527 90.126129
8 86.637497 -14.123976 -20.424902 -118.409279 -4.415617 -0.286072 90.126129
[L_front_hand01_02]
7 71.020905 -0.000179 0.000030 0.001496 0.001809 -10.800867 71.020905
8 71.020905 -0.000179 0.000030 0.001468 0.001832 -12.590645 71.020905
[L_front_hand02_02]
7 71.020927 -0.000119 0.000060 0.001496 0.001809 -10.800867 71.020927
8 71.020927 -0.000119 0.000060 0.001468 0.001832 -12.590645 71.020927
[L_front_hand03_02]
7 71.020905 -0.000060 0.000060 0.001496 0.001809 -10.800867 71.020905
8 71.020905 -0.000060 0.000060 0.001468 0.001832 -12.590645 71.020905
[R_forearm]
7 322.776428 -0.000060 0.000030 0.199694 -0.075621 -69.903069 322.776428
8 322.776428 -0.000060 0.000030 0.199694 -0.075621 -69.903069 322.776428
[R_front_hand]
7 238.847015 -0.006795 2.210259 -1.531694 0.790216 -51.443054 238.857239
8 238.847015 -0.006795 2.210259 -1.531694 0.790216 -51.443054 238.857239
[R_weapon_bone]
7 155.664093 0.002503 -0.000030 0.002933 0.002223 -127.925125 155.664078
8 155.664093 0.002503 -0.000030 0.003099 0.001986 -118.925354 155.664078
[R_front_hand01_01]
7 87.624611 14.231146 22.918642 -116.960213 3.496675 -1.324139 91.683487
8 87.624611 14.231146 22.918642 -116.953247 3.250213 -1.196416 91.683487
[R_front_hand02_01]
7 89.356956 14.367283 -19.491137 118.419647 -4.257089 0.609827 92.579636
8 89.356956 14.367283 -19.491137 118.409554 -4.009622 0.744981 92.579636
[R_front_hand03_01]
7 87.286232 -22.307278 -0.143439 -0.387970 -0.231462 4.232001 90.091743
8 87.286232 -22.307278 -0.143439 -0.387409 -0.232399 3.954867 90.091743
[R_front_hand01_02]
7 71.020905 0.000060 0.000119 0.001809 0.001496 10.799234 71.020905
8 71.020905 0.000060 0.000119 0.001832 0.001468 12.589008 71.020905
[R_front_hand02_02]
7 71.020844 -0.000030 -0.000119 0.001809 0.001496 10.799234 71.020836
8 71.020844 -0.000030 -0.000119 0.001832 0.001468 12.589008 71.020836
[R_front_hand03_02]
7 71.020905 0.000000 0.000030 0.001809 0.001496 10.799234 71.020905
8 71.020905 0.000000 0.000030 0.001832 0.001468 12.589008 71.020905
[null_rope01_connect]
7 328.732483 0.000000 -0.000238 -161.036621 54.868927 -112.820656 328.732483
8 328.732483 0.000000 -0.000238 152.283951 84.394089 -160.205002 328.732483
[Rope1_Seg01]
7 0.000000 0.000000 0.000000 -79.559303 -47.528065 -146.939087 0.000000
8 0.000000 0.000000 0.000000 -178.464783 -50.485477 -94.501587 0.000000
[Rope1_Seg02]
7 139.999863 -0.000179 0.000000 -20.982508 6.412385 -60.292294 139.999863
8 139.999863 -0.000179 0.000000 -11.271925 26.843534 -39.537125 139.999863
[Rope1_Seg03]
7 139.999924 0.000060 -0.000060 -1.292420 13.525732 -30.544950 139.999924
8 139.999924 0.000060 -0.000060 -5.198877 21.335745 -27.733913 139.999924
[Rope1_Seg04]
7 139.999924 -0.000060 -0.000119 0.136754 15.456822 -22.371956 139.999924
8 139.999924 -0.000060 -0.000119 -2.836357 18.506811 -23.773176 139.999924
[Rope1_Seg05]
7 139.999832 0.000119 -0.000060 3.366697 6.345830 -9.774660 139.999832
8 139.999832 0.000119 -0.000060 2.329285 13.763903 -17.884943 139.999832
[Rope1_Seg06]
7 139.999954 0.000119 -0.000060 3.506668 2.243132 -4.310555 139.999954
8 139.999954 0.000119 -0.000060 8.078349 4.239923 -6.281206 139.999954
[Rope1_Seg07]
7 139.999985 0.000060 0.000000 3.205086 1.184875 -2.666982 139.999985
8 139.999985 0.000060 0.000000 21.458426 1.801671 -3.730499 139.999985
[Rope1_Seg09]
7 121.602913 0.000119 -0.000089 -89.793175 -1.359789 0.847147 121.602913
8 121.602913 0.000119 -0.000089 -89.793175 -1.359789 0.847147 121.602913
[L_mid_hand01]
7 103.859421 1.038730 8.195221 107.640724 -35.120052 -10.901268 104.187431
8 103.859421 1.038730 8.195221 104.690979 -12.127199 -3.683529 104.187431
[L_mid_hand02]
7 105.572853 -4.139662 -10.864139 -143.987701 28.191181 -32.423386 106.211075
8 105.572853 -4.139662 -10.864139 -136.986465 12.817510 -12.781226 106.211075
[L_mid_hand03]
7 104.641464 17.579376 -3.913581 -15.413661 10.840238 38.196957 106.179977
8 104.641464 17.579376 -3.913581 -18.393948 3.792097 15.147139 106.179977
[null_rope02_connect]
7 328.732849 0.000179 -0.000119 3.152524 19.148222 126.527893 328.732849
8 328.732849 0.000179 -0.000119 4.809583 -9.864159 140.097305 328.732849
[Rope2_Seg01]
7 -0.000067 0.000134 0.000153 -47.897133 7.940536 -140.159088 0.000214
8 -0.000066 0.000134 0.000153 -41.743568 -15.307773 -152.501801 0.000213
[Rope2_Seg02]
7 139.999741 -0.000060 -0.000119 1.468540 15.206354 -18.042625 139.999756
8 139.999741 -0.000060 -0.000119 5.102023 7.763163 -21.603619 139.999756
[Rope2_Seg03]
7 140.000107 0.000030 0.000000 34.317280 28.811815 -41.002155 140.000107
8 140.000107 0.000030 0.000000 34.390278 12.427264 -48.726879 140.000107
[Rope2_Seg04]
7 139.999802 0.000000 -0.000060 58.685184 -2.357058 -26.986864 139.999802
8 139.999802 0.000000 -0.000060 30.262871 -10.662197 -25.960922 139.999802
[Rope2_Seg05]
7 139.999985 -0.000060 0.000119 8.423228 -14.784790 -0.928097 139.999985
8 139.999985 -0.000060 0.000119 6.714153 -14.195645 -3.940897 139.999985
[Rope2_Seg06]
7 139.999893 -0.000030 -0.000119 1.531352 -14.185296 3.574919 139.999893
8 139.999893 -0.000030 -0.000119 2.271635 -14.789817 0.225577 139.999893
[Rope2_Seg07]
7 139.999893 0.000060 -0.000060 1.063958 -8.043509 1.181281 139.999893
8 139.999893 0.000060 -0.000060 0.841209 -8.205881 -0.643789 139.999893
[Rope2_Seg09]
7 121.338966 0.000089 -0.000060 33.793236 -1.359788 -0.847141 121.338966
8 121.338966 0.000089 -0.000060 33.793236 -1.359788 -0.847141 121.338966
[R_mid_hand01]
7 104.680779 11.144459 -10.335981 -40.238312 27.648584 31.465513 105.778534
8 104.680779 11.144459 -10.335981 -46.282280 11.920233 13.898090 105.778534
[R_mid_hand02]
7 104.070427 2.443552 8.231699 72.145821 -35.985065 11.253941 104.424065
8 104.070427 2.443552 8.231699 75.179291 -14.113796 4.227930 104.424065
[R_mid_hand03]
7 106.028137 -11.221827 -5.996406 -168.523941 10.951766 -40.389626 106.788818
8 106.028137 -11.221827 -5.996406 -165.232071 5.716876 -17.994635 106.788818
[spine02]
7 129.756927 0.001550 0.000119 -0.245322 -4.052060 -4.355547 129.756927
8 129.756927 0.001550 0.000119 -0.245322 -4.052059 -4.355546 129.756927
[spine03]
7 78.613739 0.087164 -4.898916 0.369659 4.260735 -4.885721 78.766273
8 78.613739 0.087170 -4.898936 0.369659 4.260734 -4.885720 78.766281
[pelvis]
7 169.435242 0.051022 0.000000 -0.010082 -0.196353 -1.806051 169.435257
8 169.435242 0.051022 0.000000 -0.010095 -0.196353 -1.798632 169.435257
[null_rope03_connect]
7 -1.257226 -2.466202 137.391083 -151.480072 16.368584 -73.139793 137.418976
8 -1.257226 -2.466202 137.391083 -149.844299 44.772881 -71.238861 137.418976
[null_rope04_connect]
7 -1.259640 -2.480268 -137.844437 -151.480072 16.368584 -73.139793 137.872513
8 -1.259640 -2.480268 -137.844437 -149.844299 44.772881 -71.238861 137.872513
[Rope3_Seg01]
7 0.000000 0.000000 0.000000 36.494583 32.470337 -44.606754 0.000000
8 0.000000 0.000000 0.000000 20.116674 41.876831 -79.093315 0.000000
[Rope3_Seg02]
7 139.999924 -0.000119 0.000060 11.292933 14.673862 -5.849758 139.999924
8 139.999924 -0.000119 0.000060 1.200766 10.133700 -10.004514 139.999924
[Rope3_Seg03]
7 139.999924 -0.000119 0.000119 16.165495 21.527122 -14.613514 139.999924
8 139.999924 -0.000119 0.000119 -1.752378 18.668507 -20.674818 139.999924
[Rope3_Seg04]
7 139.999924 0.000119 0.000000 9.917811 15.047541 -19.091440 139.999924
8 139.999924 0.000119 0.000000 -5.677255 19.189705 -22.656988 139.999924
[Rope3_Seg05]
7 139.999924 -0.000238 0.000060 3.984801 9.694577 -25.872522 139.999924
8 139.999924 -0.000238 0.000060 -8.248252 19.008064 -21.109898 139.999924
[Rope3_Seg06]
7 139.999893 -0.000119 -0.000060 -0.504776 4.750685 -20.120125 139.999893
8 139.999893 -0.000119 -0.000060 -6.075798 14.718270 -13.513783 139.999893
[Rope3_Seg07]
7 139.999771 0.000060 -0.000119 -0.849119 2.180616 -8.461242 139.999771
8 139.999771 0.000060 -0.000119 -1.941054 6.598992 -5.051523 139.999771
[Rope3_Seg08]
7 139.999985 -0.000060 0.000000 -0.404399 1.179112 -4.346110 139.999985
8 139.999985 -0.000060 0.000000 -0.651293 3.431204 -2.467288 139.999985
[Rope3_Seg09]
7 90.185997 -0.000179 -0.000060 89.793228 -1.359877 -0.847183 90.185997
8 90.185997 -0.000179 -0.000060 89.793228 -1.359877 -0.847183 90.185997
[R_rear_hand01]
7 103.366196 -6.073594 -10.757982 -166.970291 21.129854 -46.704182 104.101845
8 103.366196 -6.073594 -10.757982 -166.970291 21.129854 -46.704182 104.101845
[R_rear_hand02]
7 100.509819 12.039542 -7.992327 -28.148870 27.804201 44.102722 101.543350
8 100.509819 12.039542 -7.992327 -28.148870 27.804201 44.102722 101.543350
[R_rear_hand03]
7 101.539970 5.215704 5.435467 81.628380 -47.127724 10.016966 101.819031
8 101.539970 5.215704 5.435467 81.628380 -47.127724 10.016966 101.819031
[Rope4_Seg01]
7 0.000000 0.000000 0.000000 -162.718857 -37.651138 -32.071236 0.000000
8 0.000000 0.000000 0.000000 -111.292229 -15.552228 -46.611870 0.000000
[Rope4_Seg02]
7 139.999985 0.000060 0.000119 -140.470840 -32.484303 -30.960468 139.999985
8 139.999985 0.000060 0.000119 70.148018 -40.539230 22.930264 139.999985
[Rope4_Seg03]
7 139.999924 0.000000 -0.000238 -7.603408 33.679764 7.541688 139.999924
8 139.999924 0.000000 -0.000238 26.753126 5.461657 41.229195 139.999924
[Rope4_Seg04]
7 139.999985 0.000000 0.000119 -1.188618 13.441268 3.682101 139.999985
8 139.999985 0.000000 0.000119 2.250428 11.040617 10.385580 139.999985
[Rope4_Seg05]
7 139.999802 -0.000060 -0.000119 -1.186637 12.183358 1.496614 139.999802
8 139.999802 -0.000060 -0.000119 0.739799 13.485126 5.858686 139.999802
[Rope4_Seg06]
7 139.999924 0.000000 0.000060 -0.275048 9.685775 1.303627 139.999924
8 139.999924 0.000000 0.000060 0.596099 9.770816 4.337367 139.999924
[Rope4_Seg07]
7 139.999802 0.000000 0.000000 0.157427 5.828947 1.114014 139.999802
8 139.999802 0.000000 0.000000 0.239289 5.479289 2.895108 139.999802
[Rope4_Seg08]
7 139.999924 0.000000 0.000119 -1.372336 3.606242 0.680938 139.999924
8 139.999924 0.000000 0.000119 -1.427553 3.313329 1.741771 139.999924
[Rope4_Seg09]
7 90.185791 0.000060 0.000060 -135.617828 2.228885 0.850567 90.185791
8 90.185791 0.000060 0.000060 -135.617828 2.228885 0.850567 90.185791
[L_rear_hand01]
7 101.696655 -8.392275 -7.654577 -27.705481 -28.251705 134.947800 102.329041
8 101.696655 -8.392275 -7.654577 -27.705481 -28.251705 134.947800 102.329041
[L_rear_hand02]
7 102.726799 -1.568258 5.773216 81.477219 48.065086 169.775513 102.900848
8 102.726799 -1.568258 5.773216 81.477219 48.065086 169.775513 102.900848
[L_rear_hand03]
7 104.552910 9.721220 -10.420293 -167.330078 -21.338425 -132.303940 105.519653
8 104.552910 9.721220 -10.420293 -167.330078 -21.338425 -132.303940 105.519653
